<?xml version="1.0" encoding="iso-8859-1"?>
<!-- Generator: Adobe Illustrator 18.0.0, SVG Export Plug-In . SVG Version: 6.00 Build 0)  -->
<!DOCTYPE svg PUBLIC "-//W3C//DTD SVG 1.1//EN" "http://www.w3.org/Graphics/SVG/1.1/DTD/svg11.dtd">
<svg version="1.1" id="Capa_1" xmlns="http://www.w3.org/2000/svg" xmlns:xlink="http://www.w3.org/1999/xlink" x="0px" y="0px"
	 viewBox="0 0 457.32 457.32" style="enable-background:new 0 0 457.32 457.32;" xml:space="preserve">
<g>
	<path d="M401.429,228.66l42.467-57.07c2.903-3.9,3.734-8.966,2.232-13.59s-5.153-8.233-9.793-9.683l-67.901-21.209l0.812-71.132
		c0.056-4.862-2.249-9.449-6.182-12.307c-3.934-2.858-9.009-3.633-13.615-2.077l-67.399,22.753L240.895,6.322
		C238.082,2.356,233.522,0,228.66,0s-9.422,2.356-12.235,6.322l-41.154,58.024l-67.4-22.753c-4.607-1.555-9.682-0.781-13.615,2.077
		s-6.238,7.445-6.182,12.307l0.812,71.132l-67.901,21.209c-4.641,1.45-8.291,5.059-9.793,9.683s-0.671,9.689,2.232,13.59
		l42.467,57.07l-42.467,57.07c-2.903,3.9-3.734,8.966-2.232,13.59s5.153,8.233,9.793,9.683l67.901,21.208l-0.812,71.132
		c-0.056,4.862,2.249,9.449,6.182,12.307c3.934,2.857,9.007,3.632,13.615,2.077l67.4-22.753l41.154,58.024
		c2.813,3.966,7.373,6.322,12.235,6.322s9.422-2.356,12.235-6.322l41.154-58.024l67.399,22.753
		c4.606,1.555,9.681,0.781,13.615-2.077c3.933-2.858,6.238-7.445,6.182-12.306l-0.812-71.133l67.901-21.208
		c4.641-1.45,8.291-5.059,9.793-9.683s0.671-9.689-2.232-13.59L401.429,228.66z M348.835,304.903
		c-6.323,1.975-10.603,7.865-10.527,14.489l0.698,61.146l-57.937-19.559c-6.276-2.12-13.2,0.13-17.033,5.534l-35.375,49.877
		l-35.375-49.877c-2.87-4.046-7.472-6.323-12.238-6.323c-1.6,0-3.218,0.256-4.795,0.789l-57.937,19.559l0.698-61.146
		c0.076-6.625-4.203-12.514-10.527-14.489l-58.368-18.231l36.504-49.058c3.955-5.315,3.955-12.594,0-17.909l-36.505-49.058
		l58.369-18.231c6.324-1.975,10.603-7.865,10.527-14.489l-0.698-61.146l57.937,19.559c6.277,2.121,13.2-0.13,17.033-5.534
		l35.375-49.878l35.375,49.878c3.833,5.404,10.756,7.653,17.033,5.534l57.937-19.559l-0.698,61.146
		c-0.076,6.624,4.204,12.514,10.527,14.489l58.369,18.231l-36.505,49.058c-3.955,5.315-3.955,12.594,0,17.909l36.504,49.058
		L348.835,304.903z"/>
	<path d="M228.66,102.712c-69.448,0-125.947,56.5-125.947,125.947s56.5,125.948,125.947,125.948s125.947-56.5,125.947-125.948
		S298.108,102.712,228.66,102.712z M228.66,324.607c-52.906,0-95.947-43.042-95.947-95.948c0-52.905,43.042-95.947,95.947-95.947
		s95.947,43.042,95.947,95.947C324.607,281.565,281.566,324.607,228.66,324.607z"/>
</g>
<g>
</g>
<g>
</g>
<g>
</g>
<g>
</g>
<g>
</g>
<g>
</g>
<g>
</g>
<g>
</g>
<g>
</g>
<g>
</g>
<g>
</g>
<g>
</g>
<g>
</g>
<g>
</g>
<g>
</g>
</svg>
