<?xml version="1.0" encoding="iso-8859-1"?>
<!-- Generator: Adobe Illustrator 18.1.1, SVG Export Plug-In . SVG Version: 6.00 Build 0)  -->
<svg version="1.1" id="Capa_1" xmlns="http://www.w3.org/2000/svg" xmlns:xlink="http://www.w3.org/1999/xlink" x="0px" y="0px"
	 viewBox="0 0 18.249 18.249" style="enable-background:new 0 0 18.249 18.249;" xml:space="preserve">
<g>
	<g>
		<g>
			<path style="fill:#030104;" d="M15.989,5.416h-5.126c-0.089-0.222-0.305-0.646-0.557-0.646H9.96l2.792-2.792
				c0.206-0.206,0.206-0.541,0-0.747c-0.204-0.206-0.539-0.206-0.744,0l-2.94,2.94L5.328,0.43c-0.206-0.205-0.541-0.205-0.747,0
				c-0.206,0.207-0.206,0.541,0,0.747L8.174,4.77H7.942c-0.253,0-0.468,0.424-0.557,0.646H2.26C1.011,5.416,0,6.344,0,7.488V15.9
				c0,1.146,1.011,2.073,2.26,2.073h13.729c1.248,0,2.26-0.927,2.26-2.073V7.488C18.249,6.343,17.238,5.416,15.989,5.416z
				 M16.974,15.9c0,0.499-0.442,0.904-0.984,0.904H2.26c-0.543,0-0.985-0.405-0.985-0.904V7.488c0-0.497,0.442-0.903,0.985-0.903
				h13.729c0.542,0,0.984,0.406,0.984,0.903V15.9H16.974z"/>
		</g>
		<g>
			<path style="fill:#030104;" d="M9.9,16.073H4.047c-1.109,0-1.883-0.875-1.883-2.13V9.445c0-1.852,1.026-2.128,1.638-2.128h6.343
				c0.612,0,1.639,0.277,1.639,2.128v4.498C11.783,15.198,11.009,16.073,9.9,16.073z M3.802,7.875c-0.268,0-1.08,0-1.08,1.571v4.498
				c0,0.783,0.41,1.57,1.325,1.57H9.9c0.915,0,1.326-0.787,1.326-1.57V9.446c0-1.571-0.813-1.571-1.081-1.571
				C10.145,7.875,3.802,7.875,3.802,7.875z"/>
		</g>
		<g>
			<path style="fill:#030104;" d="M14.39,8.355c-0.9,0-1.633,0.733-1.633,1.634s0.732,1.634,1.633,1.634s1.634-0.732,1.634-1.634
				C16.024,9.088,15.29,8.355,14.39,8.355z M14.39,10.996c-0.556,0-1.007-0.451-1.007-1.007s0.451-1.006,1.007-1.006
				s1.008,0.451,1.008,1.006S14.946,10.996,14.39,10.996z"/>
		</g>
		<g>
			<path style="fill:#030104;" d="M14.39,12.42c-0.9,0-1.633,0.733-1.633,1.636c0,0.899,0.732,1.632,1.633,1.632
				s1.634-0.732,1.634-1.632C16.024,13.154,15.29,12.42,14.39,12.42z M14.39,15.063c-0.556,0-1.007-0.452-1.007-1.007
				c0-0.556,0.451-1.008,1.007-1.008s1.008,0.452,1.008,1.008C15.398,14.611,14.946,15.063,14.39,15.063z"/>
		</g>
	</g>
</g>
<g>
</g>
<g>
</g>
<g>
</g>
<g>
</g>
<g>
</g>
<g>
</g>
<g>
</g>
<g>
</g>
<g>
</g>
<g>
</g>
<g>
</g>
<g>
</g>
<g>
</g>
<g>
</g>
<g>
</g>
</svg>
